<?xml version="1.0" standalone="no"?>
<!DOCTYPE svg PUBLIC "-//W3C//DTD SVG 20010904//EN"
 "http://www.w3.org/TR/2001/REC-SVG-20010904/DTD/svg10.dtd">
<svg version="1.0" xmlns="http://www.w3.org/2000/svg"
 width="755.000000pt" height="708.000000pt" viewBox="0 0 755.000000 708.000000"
 preserveAspectRatio="xMidYMid meet">
<metadata>
Created by potrace 1.15, written by Peter Selinger 2001-2017
</metadata>
<g transform="translate(0.000000,708.000000) scale(0.100000,-0.100000)"
fill="#000000" stroke="none">
<path d="M1972 5874 c-37 -19 -115 -102 -139 -148 -11 -20 -16 -65 -18 -140
-5 -213 -85 -495 -212 -746 -145 -287 -287 -426 -371 -363 -27 20 -55 62 -66
98 -4 14 4 32 29 60 143 161 226 281 290 419 70 150 105 310 85 385 -50 187
-312 6 -483 -335 -83 -165 -121 -321 -115 -474 l3 -95 -50 -33 c-59 -39 -143
-65 -178 -57 -14 4 -36 18 -48 31 -19 21 -24 36 -23 82 1 85 37 177 203 519
176 363 206 433 221 511 21 105 -21 182 -106 198 -148 28 -333 -56 -509 -231
-90 -89 -151 -172 -198 -273 -28 -58 -32 -78 -32 -147 0 -68 4 -85 23 -113 47
-66 131 -83 209 -44 45 23 73 56 73 84 0 15 -9 18 -45 18 -61 0 -80 29 -79
120 1 120 69 257 188 376 39 39 92 80 118 92 99 46 178 16 178 -66 0 -69 -28
-136 -189 -454 -266 -524 -307 -701 -185 -807 43 -38 67 -44 148 -39 71 4 177
50 258 113 26 19 50 35 54 35 3 0 24 -20 46 -45 68 -78 145 -83 277 -20 126
61 281 228 412 447 171 285 313 681 325 903 7 142 -16 177 -94 139z m-564
-566 c-6 -75 -62 -247 -114 -350 -64 -128 -137 -240 -147 -227 -11 13 15 196
38 269 54 168 169 370 211 370 14 0 16 -9 12 -62z"/>
<path d="M5774 5751 c-58 -26 -96 -79 -92 -127 7 -80 91 -96 165 -31 72 64 78
143 11 166 -39 14 -35 14 -84 -8z"/>
<path d="M5183 5519 c-93 -46 -183 -168 -183 -249 0 -19 9 -55 20 -79 l20 -44
-42 -56 c-128 -169 -249 -297 -311 -330 -32 -17 -57 -9 -57 19 0 29 63 194
126 331 30 63 56 129 60 146 27 137 -171 74 -368 -116 -32 -30 -58 -50 -58
-44 0 6 11 41 26 78 14 38 24 80 22 94 -3 24 -7 26 -44 24 -39 -1 -118 -35
-154 -65 -28 -23 -60 -70 -54 -79 3 -5 16 -9 30 -9 14 0 24 -6 24 -14 0 -7
-18 -62 -41 -122 -42 -114 -70 -154 -129 -184 -32 -16 -110 -35 -110 -27 0 2
14 32 31 66 37 73 55 168 45 233 -18 116 -127 187 -230 148 -48 -18 -104 -79
-126 -137 -50 -135 -30 -245 62 -335 55 -54 55 -63 -6 -92 -80 -38 -143 -10
-172 76 -31 95 -3 226 73 336 28 41 34 58 27 70 -20 31 -35 23 -108 -51 -84
-85 -140 -185 -159 -286 -11 -60 -15 -67 -62 -102 -82 -62 -151 -91 -224 -96
-57 -4 -71 -2 -101 19 -48 33 -65 91 -49 175 28 155 136 293 228 293 76 0 65
-118 -12 -138 -39 -10 -48 -44 -20 -74 27 -30 102 -21 151 19 105 85 114 216
18 263 -171 82 -456 -117 -522 -364 -8 -28 -14 -63 -14 -78 0 -20 -8 -32 -30
-43 -50 -26 -60 -21 -60 33 0 26 -4 61 -9 78 -9 33 -61 115 -105 170 l-26 30
41 54 c79 106 114 209 82 241 -38 38 -172 -16 -239 -97 -72 -87 -89 -164 -54
-243 l20 -44 -27 -36 c-168 -224 -306 -361 -364 -361 -19 0 -21 4 -16 38 6 47
60 186 139 354 32 70 60 139 61 155 2 26 -1 28 -41 31 -53 4 -133 -31 -191
-83 -50 -46 -55 -75 -11 -75 17 0 30 -2 30 -5 0 -3 -14 -34 -31 -68 -47 -93
-116 -267 -124 -315 -21 -129 75 -180 207 -110 82 44 192 149 306 293 52 66
96 122 98 124 13 15 101 -110 110 -155 l6 -31 -86 -5 c-188 -12 -301 -125
-196 -196 31 -21 43 -23 115 -20 89 5 165 35 220 89 18 16 42 29 56 29 14 0
48 11 75 25 27 14 51 25 54 25 3 0 14 -13 23 -30 10 -16 39 -42 65 -57 111
-65 305 -18 469 114 38 31 42 32 48 14 18 -58 96 -111 164 -111 68 0 166 37
235 89 58 44 69 49 132 53 43 3 85 13 112 27 24 12 46 21 48 18 2 -2 -3 -23
-11 -47 -8 -23 -15 -53 -15 -66 0 -38 57 -33 112 9 37 28 49 48 85 136 23 57
54 122 70 144 58 86 235 257 265 257 18 0 6 -40 -38 -131 -128 -264 -128 -399
2 -399 102 0 244 112 412 325 52 66 97 122 98 124 13 15 101 -111 110 -156 l7
-33 -59 0 c-155 0 -286 -80 -258 -157 31 -88 218 -85 338 5 67 50 66 50 107
57 21 3 53 17 73 30 20 13 36 23 37 22 0 -1 2 -20 4 -42 5 -52 50 -95 99 -95
42 0 159 58 210 105 21 19 41 33 43 31 3 -3 -1 -20 -8 -39 -6 -19 -9 -42 -6
-51 17 -43 128 6 165 73 11 20 32 68 47 106 33 88 77 156 161 244 60 64 145
131 166 131 16 0 7 -29 -36 -121 -86 -183 -98 -219 -103 -304 -3 -70 -1 -85
19 -120 23 -39 84 -88 124 -99 13 -4 30 1 44 12 l23 18 -29 44 c-25 38 -29 53
-28 114 1 77 24 143 140 404 31 68 56 136 56 152 3 113 -166 58 -350 -115 -47
-44 -83 -73 -80 -65 2 8 17 51 33 96 41 115 28 132 -72 98 -91 -31 -189 -122
-154 -143 7 -5 22 -6 32 -4 10 3 19 3 19 0 0 -3 -19 -58 -41 -122 -44 -125
-85 -185 -176 -262 -94 -78 -133 -91 -133 -43 0 31 64 196 137 354 35 76 67
151 70 167 5 24 2 29 -21 35 -53 13 -207 -58 -243 -112 -20 -31 -10 -54 22
-54 14 0 25 -2 25 -3 0 -2 -27 -60 -59 -128 -57 -120 -95 -171 -148 -198 -43
-22 -50 -15 -55 58 -6 76 -26 121 -97 206 l-40 48 45 62 c76 107 104 194 74
230 -18 21 -77 19 -127 -6z m-1325 -402 c27 -29 45 -110 37 -167 -10 -72 -25
-120 -37 -120 -26 0 -82 56 -104 104 -28 60 -30 91 -8 145 24 60 75 77 112 38z"/>
<path d="M2174 5440 c-32 -13 -94 -80 -96 -104 -5 -67 18 -96 74 -96 50 0 90
21 123 65 52 68 28 146 -44 144 -20 0 -46 -4 -57 -9z"/>
<path d="M4498 4273 c-47 -39 -75 -74 -140 -170 -182 -271 -325 -667 -353
-987 l-8 -78 -61 -63 c-107 -109 -164 -121 -185 -41 -22 87 -16 117 45 212
151 240 313 635 358 873 19 99 21 212 4 229 -56 56 -196 -100 -338 -378 -133
-262 -223 -552 -237 -770 l-5 -85 -64 -62 c-156 -152 -351 -176 -399 -49 -15
39 -16 54 -5 113 23 134 121 281 199 298 49 11 64 -8 59 -72 -6 -66 -64 -156
-162 -252 -67 -65 -78 -87 -50 -98 31 -12 173 84 264 178 73 75 113 149 114
211 1 41 -4 52 -32 80 -31 32 -35 33 -115 33 -72 0 -91 -4 -150 -32 -176 -83
-305 -286 -295 -462 4 -84 32 -129 101 -167 117 -63 315 -10 472 127 32 28 61
47 65 42 3 -4 12 -26 18 -48 6 -23 25 -54 42 -70 26 -25 39 -30 79 -29 62 1
120 35 215 125 l73 68 16 -53 c21 -65 53 -96 106 -103 91 -12 224 94 410 330
51 64 95 117 97 117 17 0 95 -113 108 -156 6 -19 0 -21 -86 -32 -103 -14 -189
-49 -214 -87 -25 -39 -14 -86 26 -113 31 -21 44 -23 110 -20 88 5 150 30 207
82 23 21 51 36 65 36 52 0 127 51 210 141 58 63 88 89 105 89 34 0 30 -33 -14
-121 -55 -111 -170 -222 -294 -283 -245 -120 -497 -152 -1109 -142 -314 5
-409 4 -514 -9 -373 -44 -642 -142 -788 -286 -55 -54 -68 -72 -68 -98 0 -39
22 -41 70 -6 42 31 159 77 265 103 231 58 472 85 1055 117 632 35 960 117
1252 311 204 136 346 351 314 478 -7 28 -51 56 -89 56 -48 0 -126 -51 -200
-130 -68 -73 -118 -110 -150 -110 -11 0 -13 10 -10 43 7 59 -26 139 -87 215
-27 34 -50 64 -50 67 0 2 20 33 45 68 87 125 107 202 60 233 -43 28 -120 -2
-203 -80 -65 -61 -95 -125 -89 -195 2 -31 10 -70 17 -88 14 -31 13 -31 -85
-155 -147 -182 -219 -248 -271 -248 -32 0 -45 22 -56 97 l-11 68 58 89 c145
223 302 596 361 861 23 103 25 242 4 255 -25 16 -47 11 -82 -17z m-75 -284
c-3 -110 -119 -488 -200 -656 -59 -123 -66 -102 -28 83 56 279 181 634 218
621 7 -2 11 -22 10 -48z m-423 -27 c0 -81 -94 -415 -167 -592 -43 -104 -83
-184 -89 -178 -8 8 17 161 46 283 77 325 210 633 210 487z"/>
<path d="M2365 4109 c-329 -28 -659 -250 -735 -496 -41 -134 -17 -255 63 -310
37 -25 48 -28 127 -28 66 0 92 4 114 18 39 26 29 47 -33 68 -65 23 -88 47 -97
105 -23 154 104 369 279 473 303 178 582 108 668 -169 84 -270 -106 -813 -372
-1065 -126 -118 -242 -166 -407 -166 -118 -1 -172 12 -215 51 -29 25 -32 34
-32 84 0 47 4 59 30 86 30 32 103 75 111 67 3 -3 -8 -41 -23 -86 -26 -76 -27
-81 -11 -97 15 -15 23 -16 56 -6 48 14 115 72 132 112 7 16 16 30 20 30 15 0
43 -41 49 -72 13 -61 80 -40 102 31 10 33 9 45 -7 77 -17 34 -63 75 -95 86 -6
2 4 43 25 98 193 522 316 863 316 880 0 63 -123 26 -178 -54 -12 -18 -87 -207
-166 -421 -79 -215 -152 -412 -162 -439 l-19 -48 -71 -18 c-224 -57 -343 -205
-274 -340 43 -84 141 -120 324 -120 186 0 342 47 512 155 291 185 519 525 580
865 74 417 -179 686 -611 649z"/>
<path d="M3955 2157 l-50 -92 -105 -21 c-58 -12 -107 -22 -109 -23 -3 0 30
-36 72 -80 67 -69 76 -82 72 -107 -12 -69 -24 -179 -20 -183 3 -2 45 15 95 37
50 23 97 42 104 42 7 0 54 -20 104 -45 54 -26 92 -39 92 -32 -1 7 -6 55 -13
109 l-13 96 73 80 c40 44 70 83 65 86 -4 2 -51 12 -105 22 -108 19 -99 11
-172 152 -15 28 -30 52 -34 52 -3 0 -29 -42 -56 -93z"/>
<path d="M3200 1616 c0 -8 4 -16 10 -18 5 -1 22 -38 37 -81 22 -66 29 -78 47
-75 13 2 24 14 30 36 5 17 12 32 16 32 4 0 11 -15 16 -32 6 -22 17 -34 30 -36
17 -2 24 9 44 74 13 42 30 78 37 81 7 3 13 11 13 19 0 10 -12 14 -38 14 l-39
0 1 -44 c1 -45 -8 -66 -21 -52 -5 4 -8 28 -7 52 1 44 1 44 -34 44 -31 0 -34
-2 -28 -24 3 -13 1 -39 -6 -57 l-11 -33 -14 39 c-9 26 -10 41 -3 43 5 2 10 10
10 18 0 10 -13 14 -45 14 -32 0 -45 -4 -45 -14z"/>
</g>
</svg>
